<svg width="16" height="16" viewBox="0 0 16 16" fill="none" xmlns="http://www.w3.org/2000/svg">
  <!-- Armored gauntlet -->
  <path d="M3 8 L3 13 L6 14 L10 14 L13 13 L13 8 L11 6 L5 6 Z" fill="#666666"/>
  <path d="M3.5 8.5 L3.5 12.5 L6 13.5 L10 13.5 L12.5 12.5 L12.5 8.5 L11 7 L5 7 Z" fill="#999999"/>
  <!-- Finger plates -->
  <rect x="4" y="7" width="1.5" height="3" rx="0.3" fill="#666666"/>
  <rect x="6" y="6.5" width="1.5" height="3.5" rx="0.3" fill="#666666"/>
  <rect x="8" y="6.5" width="1.5" height="3.5" rx="0.3" fill="#666666"/>
  <rect x="10" y="7" width="1.5" height="3" rx="0.3" fill="#666666"/>
  <!-- Thumb -->
  <ellipse cx="5" cy="10" rx="1" ry="1.5" fill="#666666"/>
  <!-- C++ symbols on knuckles -->
  <text x="5" y="8" text-anchor="middle" font-family="monospace" font-size="1.5" font-weight="bold" fill="#ffffff">C</text>
  <text x="7" y="7.5" text-anchor="middle" font-family="monospace" font-size="1.8" font-weight="bold" fill="#ffffff">+</text>
  <text x="9" y="7.5" text-anchor="middle" font-family="monospace" font-size="1.8" font-weight="bold" fill="#ffffff">+</text>
  <!-- Armor rivets -->
  <circle cx="4.5" cy="9" r="0.2" fill="#d4af37"/>
  <circle cx="6.5" cy="8.5" r="0.2" fill="#d4af37"/>
  <circle cx="8.5" cy="8.5" r="0.2" fill="#d4af37"/>
  <circle cx="10.5" cy="9" r="0.2" fill="#d4af37"/>
  <!-- Wrist guard -->
  <rect x="4" y="11" width="8" height="1.5" rx="0.3" fill="#4a4a4a"/>
  <rect x="4.5" y="11.3" width="7" height="0.9" fill="#666666"/>
  <!-- Leather straps -->
  <rect x="4" y="11.8" width="8" height="0.2" fill="#8b4513"/>
  <rect x="4" y="12.3" width="8" height="0.2" fill="#8b4513"/>
  <!-- Combat wear -->
  <circle cx="6" cy="9" r="0.1" fill="#8b4513"/>
  <circle cx="9" cy="8.8" r="0.1" fill="#8b4513"/>
</svg>