<svg width="16" height="16" viewBox="0 0 16 16" fill="none" xmlns="http://www.w3.org/2000/svg">
  <!-- Royal crown base -->
  <path d="M3 10 L13 10 L12 6 L10 8 L8 5 L6 8 L4 6 Z" fill="#d4af37"/>
  <path d="M3.5 10.5 L12.5 10.5 L12.5 11.5 L3.5 11.5 Z" fill="#f1c40f"/>
  <!-- Crown peaks -->
  <polygon points="4,6 5,4 6,6" fill="#d4af37"/>
  <polygon points="7,5 8,2 9,5" fill="#d4af37"/>
  <polygon points="10,6 11,4 12,6" fill="#d4af37"/>
  <!-- Crown gems -->
  <circle cx="8" cy="4" r="0.8" fill="#9b59b6"/>
  <circle cx="5" cy="5.5" r="0.5" fill="#e74c3c"/>
  <circle cx="11" cy="5.5" r="0.5" fill="#3498db"/>
  <!-- C# logo in center gem -->
  <text x="8" y="4.5" text-anchor="middle" font-family="serif" font-size="1.5" font-weight="bold" fill="#ffffff">C#</text>
  <!-- Crown band decorations -->
  <rect x="4" y="9" width="8" height="0.5" fill="#f39c12"/>
  <circle cx="5" cy="9.5" r="0.2" fill="#e74c3c"/>
  <circle cx="7" cy="9.5" r="0.2" fill="#3498db"/>
  <circle cx="9" cy="9.5" r="0.2" fill="#e74c3c"/>
  <circle cx="11" cy="9.5" r="0.2" fill="#3498db"/>
  <!-- Crown velvet interior -->
  <path d="M4 10 L12 10 L11.5 8.5 L8 9 L4.5 8.5 Z" fill="#8e44ad"/>
  <!-- Royal ermine spots -->
  <circle cx="6" cy="8.5" r="0.1" fill="#2c3e50"/>
  <circle cx="8" cy="8.8" r="0.1" fill="#2c3e50"/>
  <circle cx="10" cy="8.5" r="0.1" fill="#2c3e50"/>
  <!-- Crown reflection -->
  <path d="M5 5 Q8 3.5 11 5" stroke="#ffffff" stroke-width="0.3" fill="none" opacity="0.7"/>
</svg>