<svg width="16" height="16" viewBox="0 0 16 16" fill="none" xmlns="http://www.w3.org/2000/svg">
  <!-- Treasure chest base -->
  <rect x="2" y="7" width="12" height="7" rx="1" fill="#8b4513"/>
  <rect x="2" y="8" width="12" height="6" fill="#a0522d"/>
  <!-- Chest lid -->
  <path d="M2 7 Q8 3 14 7 L14 5 Q8 1 2 5 Z" fill="#654321"/>
  <path d="M3 6 Q8 2.5 13 6 L13 4.5 Q8 1.5 3 4.5 Z" fill="#8b4513"/>
  <!-- Docker whale -->
  <ellipse cx="8" cy="9" rx="3" ry="1.5" fill="#0db7ed"/>
  <circle cx="6.5" cy="8.5" r="0.3" fill="#ffffff"/>
  <!-- Container blocks -->
  <rect x="6" y="6" width="1" height="1" fill="#0db7ed"/>
  <rect x="8" y="6" width="1" height="1" fill="#0db7ed"/>
  <rect x="10" y="6" width="1" height="1" fill="#0db7ed"/>
  <!-- Chest lock -->
  <rect x="7.5" y="11" width="1" height="1.5" fill="#d4af37"/>
  <circle cx="8" cy="11" r="0.5" fill="#d4af37"/>
  <!-- Metal reinforcements -->
  <rect x="1" y="9" width="14" height="0.5" fill="#654321"/>
  <rect x="1" y="12" width="14" height="0.5" fill="#654321"/>
  <!-- Corner studs -->
  <circle cx="3" cy="10" r="0.3" fill="#666666"/>
  <circle cx="13" cy="10" r="0.3" fill="#666666"/>
</svg>