<svg width="16" height="16" viewBox="0 0 16 16" fill="none" xmlns="http://www.w3.org/2000/svg">
  <!-- Adventurer's boot -->
  <path d="M4 6 L4 12 L6 14 L12 14 L14 12 L14 10 L12 8 L8 6 L4 6 Z" fill="#8b4513"/>
  <path d="M4.5 6.5 L4.5 11.5 L6 13 L11.5 13 L13.5 11.5 L13.5 10 L11.5 8.5 L8 6.5 L4.5 6.5 Z" fill="#a0522d"/>
  <!-- Boot sole -->
  <ellipse cx="9" cy="13.5" rx="4" ry="1" fill="#654321"/>
  <!-- Go gopher -->
  <circle cx="8" cy="8" r="2" fill="#7fd5ea"/>
  <circle cx="7" cy="7.5" r="0.3" fill="#000000"/>
  <circle cx="9" cy="7.5" r="0.3" fill="#000000"/>
  <ellipse cx="8" cy="8.8" rx="0.8" ry="0.3" fill="#ffffff"/>
  <!-- Gopher ears -->
  <ellipse cx="6.5" cy="6.5" rx="0.4" ry="0.8" fill="#7fd5ea"/>
  <ellipse cx="9.5" cy="6.5" rx="0.4" ry="0.8" fill="#7fd5ea"/>
  <!-- Boot laces -->
  <line x1="5" y1="7" x2="7" y2="7" stroke="#654321" stroke-width="0.3"/>
  <line x1="5" y1="8" x2="7" y2="8" stroke="#654321" stroke-width="0.3"/>
  <line x1="5" y1="9" x2="7" y2="9" stroke="#654321" stroke-width="0.3"/>
  <line x1="5" y1="10" x2="7" y2="10" stroke="#654321" stroke-width="0.3"/>
  <!-- Boot buckle -->
  <rect x="10" y="9" width="1.5" height="1" fill="#d4af37"/>
  <rect x="10.3" y="9.3" width="0.9" height="0.4" fill="#8b4513"/>
  <!-- Adventure dust -->
  <circle cx="6" cy="12" r="0.2" fill="#8b7d6b"/>
  <circle cx="11" cy="11.5" r="0.2" fill="#8b7d6b"/>
  <circle cx="8" cy="13" r="0.2" fill="#8b7d6b"/>
</svg>