<svg width="16" height="16" viewBox="0 0 16 16" fill="none" xmlns="http://www.w3.org/2000/svg">
  <!-- Golden chalice base -->
  <ellipse cx="8" cy="13" rx="4" ry="1.5" fill="#d4af37"/>
  <!-- Chalice bowl -->
  <path d="M4 8 Q4 6 8 6 Q12 6 12 8 L12 11 Q12 13 8 13 Q4 13 4 11 Z" fill="#f39c12"/>
  <!-- Chalice stem -->
  <rect x="7.5" y="10" width="1" height="3" fill="#d4af37"/>
  <!-- Java coffee -->
  <ellipse cx="8" cy="8.5" rx="3" ry="1.5" fill="#8b4513"/>
  <ellipse cx="8" cy="8.5" rx="2.5" ry="1.2" fill="#a0522d"/>
  <!-- Steam/coffee beans -->
  <circle cx="6.5" cy="7.5" r="0.3" fill="#654321"/>
  <circle cx="8" cy="7" r="0.3" fill="#654321"/>
  <circle cx="9.5" cy="7.5" r="0.3" fill="#654321"/>
  <!-- Java logo -->
  <path d="M7 9 Q6.5 8.5 7 8 Q7.5 8.5 8 8 Q8.5 8.5 9 8 Q9.5 8.5 9 9" stroke="#ffffff" stroke-width="0.5" fill="none"/>
  <!-- Chalice decorations -->
  <rect x="4" y="9" width="8" height="0.3" fill="#d4af37"/>
  <rect x="4" y="10.5" width="8" height="0.3" fill="#d4af37"/>
  <!-- Handle -->
  <path d="M12 8 Q14 8 14 10 Q14 11 12 10" stroke="#d4af37" stroke-width="0.8" fill="none"/>
  <!-- Gems -->
  <circle cx="6" cy="9.5" r="0.3" fill="#e74c3c"/>
  <circle cx="10" cy="9.5" r="0.3" fill="#e74c3c"/>
  <!-- Steam wisps -->
  <path d="M7 5 Q6.5 4.5 7 4" stroke="#c0c0c0" stroke-width="0.3" fill="none"/>
  <path d="M8 5.5 Q7.5 5 8 4.5" stroke="#c0c0c0" stroke-width="0.3" fill="none"/>
  <path d="M9 5 Q9.5 4.5 9 4" stroke="#c0c0c0" stroke-width="0.3" fill="none"/>
</svg>