<svg width="16" height="16" viewBox="0 0 16 16" fill="none" xmlns="http://www.w3.org/2000/svg">
  <!-- Journal book -->
  <rect x="3" y="2" width="9" height="12" rx="0.5" fill="#8b4513"/>
  <rect x="4" y="3" width="7" height="10" fill="#e8dcc0"/>
  <!-- Binding -->
  <rect x="2" y="5" width="2" height="6" fill="#654321"/>
  <rect x="2.5" y="6" width="1" height="1" fill="#d4af37"/>
  <rect x="2.5" y="8" width="1" height="1" fill="#d4af37"/>
  <rect x="2.5" y="10" width="1" height="1" fill="#d4af37"/>
  <!-- Log entries -->
  <rect x="5" y="5" width="0.3" height="0.3" fill="#cc6666"/>
  <rect x="6" y="5" width="3" height="0.3" fill="#666666"/>
  <rect x="5" y="6.5" width="0.3" height="0.3" fill="#6aa04a"/>
  <rect x="6" y="6.5" width="2.5" height="0.3" fill="#666666"/>
  <rect x="5" y="8" width="0.3" height="0.3" fill="#d4af37"/>
  <rect x="6" y="8" width="4" height="0.3" fill="#666666"/>
  <rect x="5" y="9.5" width="0.3" height="0.3" fill="#cc6666"/>
  <rect x="6" y="9.5" width="2" height="0.3" fill="#666666"/>
  <rect x="5" y="11" width="0.3" height="0.3" fill="#5f819d"/>
  <rect x="6" y="11" width="3.5" height="0.3" fill="#666666"/>
  <!-- Page marker -->
  <rect x="8" y="2" width="1" height="3" fill="#cc6666"/>
  <polygon points="8,5 8.5,4 9,5" fill="#cc6666"/>
</svg>