<svg width="16" height="16" viewBox="0 0 16 16" fill="none" xmlns="http://www.w3.org/2000/svg">
  <!-- Alchemist's flask -->
  <path d="M6 2 L6 5 L4 8 L4 12 C4 13 5 14 6 14 L10 14 C11 14 12 13 12 12 L12 8 L10 5 L10 2 Z" fill="#4f5b93"/>
  <!-- Flask neck -->
  <rect x="7" y="1" width="2" height="2" fill="#4f5b93"/>
  <!-- Cork -->
  <rect x="6.8" y="0.5" width="2.4" height="1" fill="#8b4513"/>
  <!-- PHP elixir -->
  <path d="M5 9 L5 12 C5 12.5 5.5 13 6 13 L10 13 C10.5 13 11 12.5 11 12 L11 9 Z" fill="#8993be"/>
  <!-- PHP logo -->
  <circle cx="8" cy="10.5" r="1.5" fill="#ffffff"/>
  <text x="8" y="11" text-anchor="middle" font-family="serif" font-size="2" font-weight="bold" fill="#4f5b93">P</text>
  <!-- Bubbles -->
  <circle cx="6.5" cy="10" r="0.2" fill="#c8d6e5"/>
  <circle cx="9.5" cy="9.5" r="0.2" fill="#c8d6e5"/>
  <circle cx="7" cy="11.5" r="0.2" fill="#c8d6e5"/>
  <circle cx="9" cy="11" r="0.2" fill="#c8d6e5"/>
  <!-- Flask label -->
  <rect x="6" y="6" width="4" height="1.5" fill="#f5f5dc"/>
  <text x="8" y="6.8" text-anchor="middle" font-family="serif" font-size="1.5" fill="#4f5b93">PHP</text>
  <!-- Magical glow -->
  <circle cx="8" cy="8" r="3" fill="none" stroke="#8993be" stroke-width="0.3" opacity="0.5"/>
</svg>