<svg width="16" height="16" viewBox="0 0 16 16" fill="none" xmlns="http://www.w3.org/2000/svg">
  <!-- Emerald base -->
  <polygon points="8,2 13,5 11,14 5,14 3,5" fill="#4fc08d"/>
  <polygon points="8,3 11.5,5.5 10,12.5 6,12.5 4.5,5.5" fill="#41b883"/>
  <!-- Inner emerald glow -->
  <polygon points="8,4 10.5,6 9.5,11 6.5,11 5.5,6" fill="#35a373"/>
  <!-- Vue V symbol -->
  <polygon points="8,6 9.5,8.5 8,10 6.5,8.5" fill="#ffffff"/>
  <polygon points="8,6 9,8 8,9 7,8" fill="#4fc08d"/>
  <!-- Magical sparkles around emerald -->
  <circle cx="5" cy="4" r="0.3" fill="#ffffff"/>
  <circle cx="11" cy="4" r="0.3" fill="#ffffff"/>
  <circle cx="4" cy="7" r="0.3" fill="#ffffff"/>
  <circle cx="12" cy="7" r="0.3" fill="#ffffff"/>
  <circle cx="6" cy="13" r="0.3" fill="#ffffff"/>
  <circle cx="10" cy="13" r="0.3" fill="#ffffff"/>
  <!-- Emerald setting -->
  <circle cx="8" cy="2.5" r="0.5" fill="#d4af37"/>
  <rect x="7.5" y="1" width="1" height="2" fill="#d4af37"/>
</svg>