<svg width="16" height="16" viewBox="0 0 16 16" fill="none" xmlns="http://www.w3.org/2000/svg">
  <!-- Ancient map base -->
  <rect x="2" y="2" width="12" height="10" rx="1" fill="#f5f5dc"/>
  <!-- Aged map edges -->
  <rect x="2" y="2" width="12" height="1" fill="#d4af37"/>
  <rect x="2" y="11" width="12" height="1" fill="#d4af37"/>
  <rect x="2" y="2" width="1" height="10" fill="#d4af37"/>
  <rect x="13" y="2" width="1" height="10" fill="#d4af37"/>
  <!-- YAML structure as map paths -->
  <text x="4" y="5" font-family="monospace" font-size="2.5" fill="#654321">key:</text>
  <rect x="4" y="6" width="1" height="0.3" fill="#cc6666"/>
  <text x="5.5" y="6.3" font-family="monospace" font-size="2" fill="#654321">val</text>
  <text x="4" y="8" font-family="monospace" font-size="2.5" fill="#654321">map:</text>
  <rect x="5" y="8.5" width="0.8" height="0.3" fill="#6aa04a"/>
  <text x="6" y="8.8" font-family="monospace" font-size="2" fill="#654321">sub</text>
  <!-- Compass rose -->
  <circle cx="11" cy="9" r="1.5" fill="#8b7d6b"/>
  <polygon points="11,7.8 11.3,8.7 11,9.2 10.7,8.7" fill="#cc6666"/>
  <polygon points="11,10.2 11.3,9.3 11,8.8 10.7,9.3" fill="#ffffff"/>
  <polygon points="9.8,9 10.7,9.3 11.2,9 10.7,8.7" fill="#cc6666"/>
  <polygon points="12.2,9 11.3,9.3 10.8,9 11.3,8.7" fill="#ffffff"/>
  <!-- Corner wear -->
  <polygon points="13,3 12,3 13,4" fill="#c9a96e"/>
  <polygon points="3,11 4,11 3,10" fill="#c9a96e"/>
</svg>